<svg width="25" height="45" viewBox="0 0 25 45" fill="none" xmlns="http://www.w3.org/2000/svg">
<path d="M24.6094 30.7461C24.8047 31.0391 25 31.332 25 31.625C25 31.918 24.8047 32.2109 24.6094 32.4062L13.2812 43.7344C13.0859 44.0273 12.793 44.125 12.5 44.125C12.1094 44.125 11.9141 44.0273 11.7188 43.7344L0.390625 32.4062C0.0976562 32.2109 0 31.918 0 31.625C0 31.332 0.0976562 31.0391 0.390625 30.7461L1.07422 30.0625C1.26953 29.8672 1.46484 29.6719 1.85547 29.6719C2.14844 29.6719 2.44141 29.8672 2.73438 30.0625L10.8398 38.2656V1.54688C10.8398 1.25391 10.9375 0.960938 11.1328 0.765625C11.3281 0.570312 11.6211 0.375 12.0117 0.375H12.9883C13.2812 0.375 13.5742 0.570312 13.7695 0.765625C13.9648 0.960938 14.1602 1.25391 14.1602 1.54688V38.2656L22.2656 30.0625C22.4609 29.8672 22.7539 29.6719 23.1445 29.6719C23.4375 29.6719 23.7305 29.8672 23.9258 30.0625L24.6094 30.7461Z" fill="white"/>
</svg>
