<?xml version="1.0" standalone="no"?>
<!DOCTYPE svg PUBLIC "-//W3C//DTD SVG 20010904//EN"
 "http://www.w3.org/TR/2001/REC-SVG-20010904/DTD/svg10.dtd">
<svg version="1.0" xmlns="http://www.w3.org/2000/svg"
 width="40.000000pt" height="40.000000pt" viewBox="0 0 40.000000 40.000000"
 preserveAspectRatio="xMidYMid meet">

<g transform="translate(0.000000,40.000000) scale(0.100000,-0.100000)"
fill="#000000" stroke="none">
<path d="M150 388 c-40 -11 -95 -50 -110 -78 -10 -18 -9 -18 17 -5 61 32 141
65 157 65 9 0 31 -7 48 -16 29 -15 30 -15 24 1 -4 11 -2 15 6 13 18 -6 20 -24
4 -40 -9 -10 -44 -17 -98 -20 -104 -7 -158 -31 -182 -83 -20 -41 -15 -75 14
-120 l20 -30 0 26 c0 34 37 88 76 111 16 10 60 22 97 27 78 11 131 38 135 68
4 26 -47 67 -103 82 -47 13 -58 13 -105 -1z"/>
<path d="M363 261 c-11 -18 -90 -51 -122 -51 -72 0 -141 -52 -141 -106 0 -46
8 -63 41 -79 97 -51 249 31 249 134 0 44 -18 39 -71 -20 -33 -38 -52 -52 -72
-52 -33 1 -35 -19 -4 -47 l22 -21 -25 9 c-14 5 -29 20 -34 34 -14 41 12 78 86
123 81 48 91 58 86 79 -3 15 -5 14 -15 -3z"/>
</g>
</svg>
